<?xml version="1.0" encoding="UTF-8" standalone="no"?><!-- Generator: Gravit.io --><svg xmlns="http://www.w3.org/2000/svg" xmlns:xlink="http://www.w3.org/1999/xlink" style="isolation:isolate" viewBox="0 0 420 100" width="420pt" height="100pt"><g opacity="0.5"><line x1="4" y1="33.333" x2="416" y2="33.333" vector-effect="non-scaling-stroke" stroke-width="2" stroke-dasharray="5,10" stroke="rgb(0,0,0)" stroke-linejoin="miter" stroke-linecap="round" stroke-miterlimit="3"/></g><g opacity="0.5"><line x1="4" y1="84.333" x2="416" y2="84.333" vector-effect="non-scaling-stroke" stroke-width="2" stroke-dasharray="5,10" stroke="rgb(0,0,0)" stroke-linejoin="miter" stroke-linecap="round" stroke-miterlimit="3"/></g><g><path d=" M 91.338 83.498 L 19.151 83.498 L 22.588 47.561 L 77.588 47.561 L 91.338 83.498 Z " fill="none" vector-effect="non-scaling-stroke" stroke-width="1.5" stroke="rgb(0,0,0)" stroke-linejoin="miter" stroke-linecap="square" stroke-miterlimit="3"/><path d=" M 94.151 83.811 L 98.526 54.748 L 153.838 50.998 L 169.463 83.186 L 94.151 83.811 Z " fill="none" vector-effect="non-scaling-stroke" stroke-width="1.5" stroke="rgb(0,0,0)" stroke-linejoin="miter" stroke-linecap="square" stroke-miterlimit="3"/><path d=" M 247.9 83.186 L 172.588 83.186 L 178.838 58.498 L 231.963 55.686 L 247.9 83.186 Z " fill="none" vector-effect="non-scaling-stroke" stroke-width="1.5" stroke="rgb(0,0,0)" stroke-linejoin="miter" stroke-linecap="square" stroke-miterlimit="3"/><path d=" M 325.087 83.186 L 250.4 83.186 L 252.587 59.748 L 307.275 49.436 L 325.087 83.186 Z " fill="none" vector-effect="non-scaling-stroke" stroke-width="1.5" stroke="rgb(0,0,0)" stroke-linejoin="miter" stroke-linecap="square" stroke-miterlimit="3"/><path d=" M 328.525 83.186 Q 404.774 85.373 403.837 83.498 Q 402.899 81.623 385.087 49.748 C 361.858 47.873 343.43 51.008 329.775 59.123 L 328.525 83.186 Z " fill="none" vector-effect="non-scaling-stroke" stroke-width="1.5" stroke="rgb(0,0,0)" stroke-linejoin="miter" stroke-linecap="square" stroke-miterlimit="3"/></g><g><g clip-path="url(#_clipPath_roQ0JiCbIW3oUiVfiQByEGfw2EHE4X5Z)"><text transform="matrix(1,0,0,1,42.244,25.127)" style="font-family:'Open Sans';font-weight:400;font-size:20px;font-style:normal;fill:#000000;stroke:none;">R1</text></g><defs><clipPath id="_clipPath_roQ0JiCbIW3oUiVfiQByEGfw2EHE4X5Z"><rect x="0" y="0" width="26" height="27.236" transform="matrix(1,0,0,1,42.244,3.75)"/></clipPath></defs><g clip-path="url(#_clipPath_8eUbdSlqOj45jp5lGCDCGmmsc78UMhna)"><text transform="matrix(1,0,0,1,197.244,25.127)" style="font-family:'Open Sans';font-weight:400;font-size:20px;font-style:normal;fill:#000000;stroke:none;">R3</text></g><defs><clipPath id="_clipPath_8eUbdSlqOj45jp5lGCDCGmmsc78UMhna"><rect x="0" y="0" width="26" height="27.236" transform="matrix(1,0,0,1,197.244,3.75)"/></clipPath></defs><g clip-path="url(#_clipPath_pttUxTrgSTVPSjyfKXjqHibCSgDidrI9)"><text transform="matrix(1,0,0,1,274.744,25.127)" style="font-family:'Open Sans';font-weight:400;font-size:20px;font-style:normal;fill:#000000;stroke:none;">R4</text></g><defs><clipPath id="_clipPath_pttUxTrgSTVPSjyfKXjqHibCSgDidrI9"><rect x="0" y="0" width="26" height="27.236" transform="matrix(1,0,0,1,274.744,3.75)"/></clipPath></defs><g clip-path="url(#_clipPath_PefWYsUfStnH6F7vFnKObGt0tDkI6yBZ)"><text transform="matrix(1,0,0,1,118.807,25.127)" style="font-family:'Open Sans';font-weight:400;font-size:20px;font-style:normal;fill:#000000;stroke:none;">R2</text></g><defs><clipPath id="_clipPath_PefWYsUfStnH6F7vFnKObGt0tDkI6yBZ"><rect x="0" y="0" width="26" height="27.236" transform="matrix(1,0,0,1,118.807,3.75)"/></clipPath></defs><g clip-path="url(#_clipPath_FSN4fzHKMX03zAqXjDsroKTRra4y80Dh)"><text transform="matrix(1,0,0,1,337.186,25.127)" style="font-family:'Open Sans';font-weight:400;font-size:20px;font-style:normal;fill:#000000;stroke:none;">Space</text></g><defs><clipPath id="_clipPath_FSN4fzHKMX03zAqXjDsroKTRra4y80Dh"><rect x="0" y="0" width="58" height="27.236" transform="matrix(1,0,0,1,337.186,3.75)"/></clipPath></defs></g></svg>