<?xml version="1.0" encoding="UTF-8" standalone="no"?><!-- Generator: Gravit.io --><svg xmlns="http://www.w3.org/2000/svg" xmlns:xlink="http://www.w3.org/1999/xlink" style="isolation:isolate" viewBox="0 0 420 100" width="420pt" height="100pt"><g opacity="0.5"><line x1="4" y1="33.333" x2="416" y2="33.333" vector-effect="non-scaling-stroke" stroke-width="2" stroke-dasharray="5,10" stroke="rgb(0,0,0)" stroke-linejoin="miter" stroke-linecap="round" stroke-miterlimit="3"/></g><g opacity="0.5"><line x1="4" y1="84.333" x2="416" y2="84.333" vector-effect="non-scaling-stroke" stroke-width="2" stroke-dasharray="5,10" stroke="rgb(0,0,0)" stroke-linejoin="miter" stroke-linecap="round" stroke-miterlimit="3"/></g><g><path d=" M 339.333 54.514 C 338.879 54.596 338.492 54.87 338.268 55.253 L 338.268 55.254 C 333.666 63.21 330.08 71.381 327.279 80.085 L 327.272 83.599 L 401.136 83.599 L 401.136 80.377 C 398.342 71.62 394.613 63.21 390.008 55.254 C 389.784 54.871 389.394 54.595 388.946 54.515 M 388.946 54.514 C 380.762 53.061 372.456 52.333 364.139 52.333 C 355.814 52.333 347.518 53.061 339.333 54.514" fill="none" vector-effect="non-scaling-stroke" stroke-width="1.501" stroke="rgb(35,31,32)" stroke-linejoin="miter" stroke-linecap="butt" stroke-miterlimit="10"/><path d=" M 323.848 79.417 C 321.249 70.349 317.637 61.839 313.092 53.519 M 313.092 53.519 C 312.828 53.034 312.305 52.731 311.74 52.731 C 311.657 52.731 311.572 52.731 311.489 52.75 C 303.431 54.055 295.275 54.701 287.102 54.701 C 278.933 54.701 270.776 54.055 262.718 52.75 C 262.635 52.731 262.55 52.731 262.466 52.731 C 261.893 52.731 261.378 53.034 261.115 53.519 C 256.567 61.84 252.958 70.614 250.359 79.682 C 250.236 80.114 250.172 80.549 250.173 80.99 L 250.171 83.599 L 324.037 83.599 L 324.035 80.732 C 324.034 80.286 323.971 79.849 323.848 79.417" fill="none" vector-effect="non-scaling-stroke" stroke-width="1.501" stroke="rgb(35,31,32)" stroke-linejoin="miter" stroke-linecap="butt" stroke-miterlimit="10"/><mask id="_mask_neKK2cffvtLfw3AdBDBCKrimX91K3TBb" x="-200%" y="-200%" width="400%" height="400%"><rect x="-200%" y="-200%" width="400%" height="400%" style="fill:white;"/><path d=" M 246.755 79.68 C 244.154 70.612 240.543 61.838 235.995 53.518 C 235.734 53.033 235.219 52.729 234.646 52.729 C 234.561 52.729 234.479 52.729 234.395 52.749 L 234.396 52.749 C 226.337 54.054 218.18 54.7 210.008 54.7 C 201.833 54.7 193.675 54.054 185.618 52.749 C 185.533 52.729 185.449 52.729 185.366 52.729 C 184.8 52.729 184.276 53.033 184.015 53.518 C 179.468 61.838 175.858 70.613 173.255 79.681 C 173.134 80.113 173.072 80.548 173.074 80.99 L 173.073 83.599 L 246.931 83.599 L 246.937 80.99 C 246.955 80.451 246.853 80.033 246.755 79.68 Z " fill="black" stroke="none"/></mask><path d=" M 246.755 79.68 C 244.154 70.612 240.543 61.838 235.995 53.518 C 235.734 53.033 235.219 52.729 234.646 52.729 C 234.561 52.729 234.479 52.729 234.395 52.749 L 234.396 52.749 C 226.337 54.054 218.18 54.7 210.008 54.7 C 201.833 54.7 193.675 54.054 185.618 52.749 C 185.533 52.729 185.449 52.729 185.366 52.729 C 184.8 52.729 184.276 53.033 184.015 53.518 C 179.468 61.838 175.858 70.613 173.255 79.681 C 173.134 80.113 173.072 80.548 173.074 80.99 L 173.073 83.599 L 246.931 83.599 L 246.937 80.99 C 246.955 80.451 246.853 80.033 246.755 79.68 Z " fill="none"/><path d=" M 246.755 79.68 C 244.154 70.612 240.543 61.838 235.995 53.518 C 235.734 53.033 235.219 52.729 234.646 52.729 C 234.561 52.729 234.479 52.729 234.395 52.749 L 234.396 52.749 C 226.337 54.054 218.18 54.7 210.008 54.7 C 201.833 54.7 193.675 54.054 185.618 52.749 C 185.533 52.729 185.449 52.729 185.366 52.729 C 184.8 52.729 184.276 53.033 184.015 53.518 C 179.468 61.838 175.858 70.613 173.255 79.681 C 173.134 80.113 173.072 80.548 173.074 80.99 L 173.073 83.599 L 246.931 83.599 L 246.937 80.99 C 246.955 80.451 246.853 80.033 246.755 79.68 Z " fill="none" mask="url(#_mask_neKK2cffvtLfw3AdBDBCKrimX91K3TBb)" vector-effect="non-scaling-stroke" stroke-width="3.001" stroke="rgb(35,31,32)" stroke-linejoin="miter" stroke-linecap="butt" stroke-miterlimit="10"/><mask id="_mask_PelYV7V6CJVqDEia8PCl2MoTESMELfOe" x="-200%" y="-200%" width="400%" height="400%"><rect x="-200%" y="-200%" width="400%" height="400%" style="fill:white;"/><path d=" M 169.637 79.681 C 167.038 70.613 163.434 61.839 158.89 53.519 C 158.619 53.034 158.103 52.731 157.529 52.731 C 157.446 52.731 157.362 52.731 157.278 52.75 C 149.222 54.055 141.066 54.701 132.898 54.701 C 124.73 54.701 116.573 54.055 108.518 52.75 C 108.433 52.731 108.351 52.731 108.266 52.731 C 107.699 52.731 107.177 53.034 106.913 53.519 C 102.367 61.84 98.765 70.614 96.159 79.682 C 96.036 80.114 95.973 80.549 95.975 81.003 L 95.978 83.599 L 169.841 83.599 L 169.838 80.997 C 169.835 80.555 169.761 80.114 169.637 79.681 Z " fill="black" stroke="none"/></mask><path d=" M 169.637 79.681 C 167.038 70.613 163.434 61.839 158.89 53.519 C 158.619 53.034 158.103 52.731 157.529 52.731 C 157.446 52.731 157.362 52.731 157.278 52.75 C 149.222 54.055 141.066 54.701 132.898 54.701 C 124.73 54.701 116.573 54.055 108.518 52.75 C 108.433 52.731 108.351 52.731 108.266 52.731 C 107.699 52.731 107.177 53.034 106.913 53.519 C 102.367 61.84 98.765 70.614 96.159 79.682 C 96.036 80.114 95.973 80.549 95.975 81.003 L 95.978 83.599 L 169.841 83.599 L 169.838 80.997 C 169.835 80.555 169.761 80.114 169.637 79.681 Z " fill="none"/><path d=" M 169.637 79.681 C 167.038 70.613 163.434 61.839 158.89 53.519 C 158.619 53.034 158.103 52.731 157.529 52.731 C 157.446 52.731 157.362 52.731 157.278 52.75 C 149.222 54.055 141.066 54.701 132.898 54.701 C 124.73 54.701 116.573 54.055 108.518 52.75 C 108.433 52.731 108.351 52.731 108.266 52.731 C 107.699 52.731 107.177 53.034 106.913 53.519 C 102.367 61.84 98.765 70.614 96.159 79.682 C 96.036 80.114 95.973 80.549 95.975 81.003 L 95.978 83.599 L 169.841 83.599 L 169.838 80.997 C 169.835 80.555 169.761 80.114 169.637 79.681 Z " fill="none" mask="url(#_mask_PelYV7V6CJVqDEia8PCl2MoTESMELfOe)" vector-effect="non-scaling-stroke" stroke-width="3.001" stroke="rgb(35,31,32)" stroke-linejoin="miter" stroke-linecap="butt" stroke-miterlimit="10"/><mask id="_mask_SHzwLAJOOGoycjB5CixtXu5hrPZqM0Fv" x="-200%" y="-200%" width="400%" height="400%"><rect x="-200%" y="-200%" width="400%" height="400%" style="fill:white;"/><path d=" M 29.922 53.093 C 30.182 52.608 30.583 52.714 31.151 52.714 C 31.235 52.714 31.323 52.714 31.402 52.733 C 39.461 54.038 47.623 54.684 55.794 54.684 C 63.966 54.684 72.09 54.046 80.148 52.742 L 80.181 52.731 C 80.265 52.711 80.348 52.711 80.439 52.711 C 81.005 52.711 81.521 53.015 81.788 53.499 C 86.337 61.819 89.94 70.594 92.543 79.662 C 92.669 80.094 92.748 80.567 92.75 81.004 L 92.746 83.599 L 18.868 83.599 L 18.864 80.957 C 18.88 80.621 18.881 80.264 19.032 79.697 C 21.646 70.612 25.374 61.413 29.922 53.093 L 29.922 53.093 Z " fill="black" stroke="none"/></mask><path d=" M 29.922 53.093 C 30.182 52.608 30.583 52.714 31.151 52.714 C 31.235 52.714 31.323 52.714 31.402 52.733 C 39.461 54.038 47.623 54.684 55.794 54.684 C 63.966 54.684 72.09 54.046 80.148 52.742 L 80.181 52.731 C 80.265 52.711 80.348 52.711 80.439 52.711 C 81.005 52.711 81.521 53.015 81.788 53.499 C 86.337 61.819 89.94 70.594 92.543 79.662 C 92.669 80.094 92.748 80.567 92.75 81.004 L 92.746 83.599 L 18.868 83.599 L 18.864 80.957 C 18.88 80.621 18.881 80.264 19.032 79.697 C 21.646 70.612 25.374 61.413 29.922 53.093 L 29.922 53.093 Z " fill="none"/><path d=" M 29.922 53.093 C 30.182 52.608 30.583 52.714 31.151 52.714 C 31.235 52.714 31.323 52.714 31.402 52.733 C 39.461 54.038 47.623 54.684 55.794 54.684 C 63.966 54.684 72.09 54.046 80.148 52.742 L 80.181 52.731 C 80.265 52.711 80.348 52.711 80.439 52.711 C 81.005 52.711 81.521 53.015 81.788 53.499 C 86.337 61.819 89.94 70.594 92.543 79.662 C 92.669 80.094 92.748 80.567 92.75 81.004 L 92.746 83.599 L 18.868 83.599 L 18.864 80.957 C 18.88 80.621 18.881 80.264 19.032 79.697 C 21.646 70.612 25.374 61.413 29.922 53.093 L 29.922 53.093 Z " fill="none" mask="url(#_mask_SHzwLAJOOGoycjB5CixtXu5hrPZqM0Fv)" vector-effect="non-scaling-stroke" stroke-width="3" stroke="rgb(35,31,32)" stroke-linejoin="miter" stroke-linecap="butt" stroke-miterlimit="10"/></g><g><g clip-path="url(#_clipPath_HewCkQZVOfzdswqHwFs2Dj0CGfy0m7zW)"><text transform="matrix(1,0,0,1,42.807,25.127)" style="font-family:'Open Sans';font-weight:400;font-size:20px;font-style:normal;fill:#000000;stroke:none;">R1</text></g><defs><clipPath id="_clipPath_HewCkQZVOfzdswqHwFs2Dj0CGfy0m7zW"><rect x="0" y="0" width="26" height="27.236" transform="matrix(1,0,0,1,42.807,3.75)"/></clipPath></defs><g clip-path="url(#_clipPath_l6mSHqi84rlpcIGct86BuX5FV2ar1UC7)"><text transform="matrix(1,0,0,1,197.006,25.127)" style="font-family:'Open Sans';font-weight:400;font-size:20px;font-style:normal;fill:#000000;stroke:none;">R3</text></g><defs><clipPath id="_clipPath_l6mSHqi84rlpcIGct86BuX5FV2ar1UC7"><rect x="0" y="0" width="26" height="27.236" transform="matrix(1,0,0,1,197.006,3.75)"/></clipPath></defs><g clip-path="url(#_clipPath_NI8ghU7HLy6BBFQMW17ucAq9fWBBTYw8)"><text transform="matrix(1,0,0,1,274.104,25.127)" style="font-family:'Open Sans';font-weight:400;font-size:20px;font-style:normal;fill:#000000;stroke:none;">R4</text></g><defs><clipPath id="_clipPath_NI8ghU7HLy6BBFQMW17ucAq9fWBBTYw8"><rect x="0" y="0" width="26" height="27.236" transform="matrix(1,0,0,1,274.104,3.75)"/></clipPath></defs><g clip-path="url(#_clipPath_konbovuXz3fjHEdbrDIFqAiTWCVIaYfD)"><text transform="matrix(1,0,0,1,119.908,25.127)" style="font-family:'Open Sans';font-weight:400;font-size:20px;font-style:normal;fill:#000000;stroke:none;">R2</text></g><defs><clipPath id="_clipPath_konbovuXz3fjHEdbrDIFqAiTWCVIaYfD"><rect x="0" y="0" width="26" height="27.236" transform="matrix(1,0,0,1,119.908,3.75)"/></clipPath></defs><g clip-path="url(#_clipPath_eVZoMsPlw9ibrNZ0MApapWx6bkVBVS8I)"><text transform="matrix(1,0,0,1,335.204,25.127)" style="font-family:'Open Sans';font-weight:400;font-size:20px;font-style:normal;fill:#000000;stroke:none;">Space</text></g><defs><clipPath id="_clipPath_eVZoMsPlw9ibrNZ0MApapWx6bkVBVS8I"><rect x="0" y="0" width="58" height="27.236" transform="matrix(1,0,0,1,335.204,3.75)"/></clipPath></defs></g></svg>