<?xml version="1.0" encoding="UTF-8" standalone="no"?><!-- Generator: Gravit.io --><svg xmlns="http://www.w3.org/2000/svg" xmlns:xlink="http://www.w3.org/1999/xlink" style="isolation:isolate" viewBox="0 0 420 100" width="420pt" height="100pt"><g opacity="0.5"><line x1="4" y1="33.333" x2="416" y2="33.333" vector-effect="non-scaling-stroke" stroke-width="2" stroke-dasharray="5,10" stroke="rgb(0,0,0)" stroke-linejoin="miter" stroke-linecap="round" stroke-miterlimit="3"/></g><g opacity="0.5"><line x1="4" y1="84.333" x2="416" y2="84.333" vector-effect="non-scaling-stroke" stroke-width="2" stroke-dasharray="5,10" stroke="rgb(0,0,0)" stroke-linejoin="miter" stroke-linecap="round" stroke-miterlimit="3"/></g><g><path d=" M 91.338 83.498 L 19.151 83.498 L 25.125 36.938 L 79.125 41.438 L 91.338 83.498 Z " fill="none" vector-effect="non-scaling-stroke" stroke-width="1.5" stroke="rgb(0,0,0)" stroke-linejoin="miter" stroke-linecap="square" stroke-miterlimit="3"/><path d=" M 94.151 83.5 L 99.75 49.313 L 157.125 47.063 L 169.463 83.5 L 94.151 83.5 Z " fill="none" vector-effect="non-scaling-stroke" stroke-width="1.5" stroke="rgb(0,0,0)" stroke-linejoin="miter" stroke-linecap="square" stroke-miterlimit="3"/><path d=" M 247.9 82.5 L 172.588 83.5 L 178.125 53.063 L 235.875 47.063 L 247.9 82.5 Z " fill="none" vector-effect="non-scaling-stroke" stroke-width="1.5" stroke="rgb(0,0,0)" stroke-linejoin="miter" stroke-linecap="square" stroke-miterlimit="3"/><path d=" M 325.087 83.5 L 250.4 83.5 L 253.875 53.438 L 310.125 41.438 L 325.087 83.5 Z " fill="none" vector-effect="non-scaling-stroke" stroke-width="1.5" stroke="rgb(0,0,0)" stroke-linejoin="miter" stroke-linecap="square" stroke-miterlimit="3"/><path d=" M 328.525 83.5 L 403.837 83.498 L 387.375 41.063 C 364.146 39.188 345.156 45.323 331.5 53.438 L 328.525 83.5 Z " fill="none" vector-effect="non-scaling-stroke" stroke-width="1.5" stroke="rgb(0,0,0)" stroke-linejoin="miter" stroke-linecap="square" stroke-miterlimit="3"/></g><g><g clip-path="url(#_clipPath_5cjgY80CUbkbf5QxkwL2xRVQ3mKA54uO)"><text transform="matrix(1,0,0,1,42.244,25.127)" style="font-family:'Open Sans';font-weight:400;font-size:20px;font-style:normal;fill:#000000;stroke:none;">R1</text></g><defs><clipPath id="_clipPath_5cjgY80CUbkbf5QxkwL2xRVQ3mKA54uO"><rect x="0" y="0" width="26" height="27.236" transform="matrix(1,0,0,1,42.244,3.75)"/></clipPath></defs><g clip-path="url(#_clipPath_AKnwf62bLg7LKYAYBsfdYGKm0N5lYwqA)"><text transform="matrix(1,0,0,1,197.244,25.127)" style="font-family:'Open Sans';font-weight:400;font-size:20px;font-style:normal;fill:#000000;stroke:none;">R3</text></g><defs><clipPath id="_clipPath_AKnwf62bLg7LKYAYBsfdYGKm0N5lYwqA"><rect x="0" y="0" width="26" height="27.236" transform="matrix(1,0,0,1,197.244,3.75)"/></clipPath></defs><g clip-path="url(#_clipPath_11ZwUE6KGkJVJmoc08DuClniKsXOQlwH)"><text transform="matrix(1,0,0,1,274.744,25.127)" style="font-family:'Open Sans';font-weight:400;font-size:20px;font-style:normal;fill:#000000;stroke:none;">R4</text></g><defs><clipPath id="_clipPath_11ZwUE6KGkJVJmoc08DuClniKsXOQlwH"><rect x="0" y="0" width="26" height="27.236" transform="matrix(1,0,0,1,274.744,3.75)"/></clipPath></defs><g clip-path="url(#_clipPath_Oy4lvm37Bx8g5XaUJ0UwQtTzA8tl8xwB)"><text transform="matrix(1,0,0,1,118.807,25.127)" style="font-family:'Open Sans';font-weight:400;font-size:20px;font-style:normal;fill:#000000;stroke:none;">R2</text></g><defs><clipPath id="_clipPath_Oy4lvm37Bx8g5XaUJ0UwQtTzA8tl8xwB"><rect x="0" y="0" width="26" height="27.236" transform="matrix(1,0,0,1,118.807,3.75)"/></clipPath></defs><g clip-path="url(#_clipPath_Z9G1KWOfL85Jdx0dM2xB5y9wPmG1Ystk)"><text transform="matrix(1,0,0,1,337.181,25.127)" style="font-family:'Open Sans';font-weight:400;font-size:20px;font-style:normal;fill:#000000;stroke:none;">Space</text></g><defs><clipPath id="_clipPath_Z9G1KWOfL85Jdx0dM2xB5y9wPmG1Ystk"><rect x="0" y="0" width="58" height="27.236" transform="matrix(1,0,0,1,337.181,3.75)"/></clipPath></defs></g></svg>