<?xml version="1.0" encoding="UTF-8" standalone="no"?><!-- Generator: Gravit.io --><svg xmlns="http://www.w3.org/2000/svg" xmlns:xlink="http://www.w3.org/1999/xlink" style="isolation:isolate" viewBox="0 0 420 115" width="420pt" height="115pt"><g opacity="0.5"><line x1="4" y1="48.33" x2="416" y2="48.33" vector-effect="non-scaling-stroke" stroke-width="2" stroke-dasharray="5,10" stroke="rgb(0,0,0)" stroke-linejoin="miter" stroke-linecap="round" stroke-miterlimit="3"/></g><g opacity="0.5"><line x1="4" y1="99.33" x2="416" y2="99.33" vector-effect="non-scaling-stroke" stroke-width="2" stroke-dasharray="5,10" stroke="rgb(0,0,0)" stroke-linejoin="miter" stroke-linecap="round" stroke-miterlimit="3"/></g><g><mask id="_mask_l2qNzjwb3f01buai2bNpzIe43RFPQYgt" x="-200%" y="-200%" width="400%" height="400%"><rect x="-200%" y="-200%" width="400%" height="400%" style="fill:white;"/><path d=" M 246.862 97.693 L 247.208 97.693 L 173.083 97.693 C 173.999 81.055 177.705 64.5 184.243 49.312 C 184.482 48.748 185.03 48.382 185.641 48.382 C 185.725 48.382 185.808 48.394 185.891 48.404 C 193.884 49.739 201.975 50.406 210.084 50.406 C 218.188 50.406 226.282 49.739 234.281 48.404 C 234.358 48.394 234.448 48.382 234.531 48.382 C 235.137 48.382 235.69 48.748 235.93 49.312 C 242.46 64.5 246.167 81.169 246.862 97.693 Z " fill="black" stroke="none"/></mask><path d=" M 246.862 97.693 L 247.208 97.693 L 173.083 97.693 C 173.999 81.055 177.705 64.5 184.243 49.312 C 184.482 48.748 185.03 48.382 185.641 48.382 C 185.725 48.382 185.808 48.394 185.891 48.404 C 193.884 49.739 201.975 50.406 210.084 50.406 C 218.188 50.406 226.282 49.739 234.281 48.404 C 234.358 48.394 234.448 48.382 234.531 48.382 C 235.137 48.382 235.69 48.748 235.93 49.312 C 242.46 64.5 246.167 81.169 246.862 97.693 Z " fill="none"/><path d=" M 246.862 97.693 L 247.208 97.693 L 173.083 97.693 C 173.999 81.055 177.705 64.5 184.243 49.312 C 184.482 48.748 185.03 48.382 185.641 48.382 C 185.725 48.382 185.808 48.394 185.891 48.404 C 193.884 49.739 201.975 50.406 210.084 50.406 C 218.188 50.406 226.282 49.739 234.281 48.404 C 234.358 48.394 234.448 48.382 234.531 48.382 C 235.137 48.382 235.69 48.748 235.93 49.312 C 242.46 64.5 246.167 81.169 246.862 97.693 Z " fill="none" mask="url(#_mask_l2qNzjwb3f01buai2bNpzIe43RFPQYgt)" vector-effect="non-scaling-stroke" stroke-width="3" stroke="rgb(35,31,32)" stroke-linejoin="miter" stroke-linecap="butt" stroke-miterlimit="10"/><mask id="_mask_7r6iVAdtrugDP7Edv3jfTrJwsI7RFZ3v" x="-200%" y="-200%" width="400%" height="400%"><rect x="-200%" y="-200%" width="400%" height="400%" style="fill:white;"/><path d=" M 363.955 47.687 C 356.053 47.687 348.169 48.376 340.382 49.765 C 339.308 49.951 338.399 50.671 337.97 51.683 C 331.788 66.183 328.176 81.826 327.122 97.693 L 400.856 97.693 C 399.735 81.826 396.123 66.183 389.938 51.683 C 389.513 50.671 388.606 49.951 387.524 49.765 C 379.746 48.376 371.861 47.687 363.955 47.687 L 363.955 47.687 Z " fill="black" stroke="none"/></mask><path d=" M 363.955 47.687 C 356.053 47.687 348.169 48.376 340.382 49.765 C 339.308 49.951 338.399 50.671 337.97 51.683 C 331.788 66.183 328.176 81.826 327.122 97.693 L 400.856 97.693 C 399.735 81.826 396.123 66.183 389.938 51.683 C 389.513 50.671 388.606 49.951 387.524 49.765 C 379.746 48.376 371.861 47.687 363.955 47.687 L 363.955 47.687 Z " fill="none"/><path d=" M 363.955 47.687 C 356.053 47.687 348.169 48.376 340.382 49.765 C 339.308 49.951 338.399 50.671 337.97 51.683 C 331.788 66.183 328.176 81.826 327.122 97.693 L 400.856 97.693 C 399.735 81.826 396.123 66.183 389.938 51.683 C 389.513 50.671 388.606 49.951 387.524 49.765 C 379.746 48.376 371.861 47.687 363.955 47.687 L 363.955 47.687 Z " fill="none" mask="url(#_mask_7r6iVAdtrugDP7Edv3jfTrJwsI7RFZ3v)" vector-effect="non-scaling-stroke" stroke-width="3" stroke="rgb(35,31,32)" stroke-linejoin="miter" stroke-linecap="butt" stroke-miterlimit="10"/><mask id="_mask_B6IT1xP1IQaI4UCbtnrQ8wUPfJGIMQQr" x="-200%" y="-200%" width="400%" height="400%"><rect x="-200%" y="-200%" width="400%" height="400%" style="fill:white;"/><path d=" M 310.635 43.325 C 310.772 43.285 310.916 43.264 311.063 43.264 C 311.702 43.264 312.272 43.673 312.489 44.265 C 318.628 61.394 322.446 79.44 323.838 97.693 L 250.14 97.693 C 252.126 81.431 255.789 65.37 261.397 50.149 C 261.619 49.544 262.187 49.148 262.819 49.148 L 262.891 49.148 C 265.017 49.241 267.147 49.293 269.282 49.293 C 283.278 49.293 297.201 47.281 310.635 43.325" fill="black" stroke="none"/></mask><path d=" M 310.635 43.325 C 310.772 43.285 310.916 43.264 311.063 43.264 C 311.702 43.264 312.272 43.673 312.489 44.265 C 318.628 61.394 322.446 79.44 323.838 97.693 L 250.14 97.693 C 252.126 81.431 255.789 65.37 261.397 50.149 C 261.619 49.544 262.187 49.148 262.819 49.148 L 262.891 49.148 C 265.017 49.241 267.147 49.293 269.282 49.293 C 283.278 49.293 297.201 47.281 310.635 43.325" fill="none"/><path d=" M 310.635 43.325 C 310.772 43.285 310.916 43.264 311.063 43.264 C 311.702 43.264 312.272 43.673 312.489 44.265 C 318.628 61.394 322.446 79.44 323.838 97.693 L 250.14 97.693 C 252.126 81.431 255.789 65.37 261.397 50.149 C 261.619 49.544 262.187 49.148 262.819 49.148 L 262.891 49.148 C 265.017 49.241 267.147 49.293 269.282 49.293 C 283.278 49.293 297.201 47.281 310.635 43.325" fill="none" mask="url(#_mask_B6IT1xP1IQaI4UCbtnrQ8wUPfJGIMQQr)" vector-effect="non-scaling-stroke" stroke-width="3" stroke="rgb(35,31,32)" stroke-linejoin="miter" stroke-linecap="butt" stroke-miterlimit="10"/><mask id="_mask_TfEt30eAXLOv1NMb2L8imB0iBbHnqRra" x="-200%" y="-200%" width="400%" height="400%"><rect x="-200%" y="-200%" width="400%" height="400%" style="fill:white;"/><path d=" M 108.941 43.264 C 109.085 43.264 109.231 43.285 109.374 43.325 C 122.793 47.281 136.708 49.293 150.694 49.293 C 152.827 49.293 154.957 49.242 157.088 49.148 L 157.15 49.148 C 157.785 49.148 158.357 49.544 158.573 50.149 C 164.177 65.37 167.84 81.431 169.772 97.693 L 96.075 97.693 C 97.565 79.44 101.379 61.394 107.518 44.265 C 107.729 43.673 108.303 43.264 108.941 43.264 L 108.941 43.264 Z " fill="black" stroke="none"/></mask><path d=" M 108.941 43.264 C 109.085 43.264 109.231 43.285 109.374 43.325 C 122.793 47.281 136.708 49.293 150.694 49.293 C 152.827 49.293 154.957 49.242 157.088 49.148 L 157.15 49.148 C 157.785 49.148 158.357 49.544 158.573 50.149 C 164.177 65.37 167.84 81.431 169.772 97.693 L 96.075 97.693 C 97.565 79.44 101.379 61.394 107.518 44.265 C 107.729 43.673 108.303 43.264 108.941 43.264 L 108.941 43.264 Z " fill="none"/><path d=" M 108.941 43.264 C 109.085 43.264 109.231 43.285 109.374 43.325 C 122.793 47.281 136.708 49.293 150.694 49.293 C 152.827 49.293 154.957 49.242 157.088 49.148 L 157.15 49.148 C 157.785 49.148 158.357 49.544 158.573 50.149 C 164.177 65.37 167.84 81.431 169.772 97.693 L 96.075 97.693 C 97.565 79.44 101.379 61.394 107.518 44.265 C 107.729 43.673 108.303 43.264 108.941 43.264 L 108.941 43.264 Z " fill="none" mask="url(#_mask_TfEt30eAXLOv1NMb2L8imB0iBbHnqRra)" vector-effect="non-scaling-stroke" stroke-width="3" stroke="rgb(35,31,32)" stroke-linejoin="miter" stroke-linecap="butt" stroke-miterlimit="10"/><mask id="_mask_NbllNWAqIPz7RxlVplfX1HCn9vCC7U2z" x="-200%" y="-200%" width="400%" height="400%"><rect x="-200%" y="-200%" width="400%" height="400%" style="fill:white;"/><path d=" M 19.144 97.693 L 19.146 97.693 L 92.955 97.693 L 92.954 97.693 C 92.954 79.396 89.129 60.809 81.724 44.066 C 81.491 43.545 80.99 43.202 80.421 43.165 C 64.199 42.2 48.249 38.559 33.21 32.415 C 33.028 32.34 32.834 32.3 32.634 32.3 C 31.992 32.3 31.419 32.707 31.195 33.3 C 23.748 53.851 19.684 75.86 19.144 97.693 L 19.144 97.693 Z " fill="black" stroke="none"/></mask><path d=" M 19.144 97.693 L 19.146 97.693 L 92.955 97.693 L 92.954 97.693 C 92.954 79.396 89.129 60.809 81.724 44.066 C 81.491 43.545 80.99 43.202 80.421 43.165 C 64.199 42.2 48.249 38.559 33.21 32.415 C 33.028 32.34 32.834 32.3 32.634 32.3 C 31.992 32.3 31.419 32.707 31.195 33.3 C 23.748 53.851 19.684 75.86 19.144 97.693 L 19.144 97.693 Z " fill="none"/><path d=" M 19.144 97.693 L 19.146 97.693 L 92.955 97.693 L 92.954 97.693 C 92.954 79.396 89.129 60.809 81.724 44.066 C 81.491 43.545 80.99 43.202 80.421 43.165 C 64.199 42.2 48.249 38.559 33.21 32.415 C 33.028 32.34 32.834 32.3 32.634 32.3 C 31.992 32.3 31.419 32.707 31.195 33.3 C 23.748 53.851 19.684 75.86 19.144 97.693 L 19.144 97.693 Z " fill="none" mask="url(#_mask_NbllNWAqIPz7RxlVplfX1HCn9vCC7U2z)" vector-effect="non-scaling-stroke" stroke-width="3" stroke="rgb(35,31,32)" stroke-linejoin="miter" stroke-linecap="butt" stroke-miterlimit="10"/></g><g><g clip-path="url(#_clipPath_IpTNxhp5k3FzHTcNHCu6OagdLHXyDJF0)"><text transform="matrix(1,0,0,1,43.05,25.127)" style="font-family:'Open Sans';font-weight:400;font-size:20px;font-style:normal;fill:#000000;stroke:none;">R1</text></g><defs><clipPath id="_clipPath_IpTNxhp5k3FzHTcNHCu6OagdLHXyDJF0"><rect x="0" y="0" width="26" height="27.236" transform="matrix(1,0,0,1,43.05,3.75)"/></clipPath></defs><g clip-path="url(#_clipPath_sYkJDiyhrcNSZ9fJiSSAHMZyk0QRb6O7)"><text transform="matrix(1,0,0,1,197.146,25.127)" style="font-family:'Open Sans';font-weight:400;font-size:20px;font-style:normal;fill:#000000;stroke:none;">R3</text></g><defs><clipPath id="_clipPath_sYkJDiyhrcNSZ9fJiSSAHMZyk0QRb6O7"><rect x="0" y="0" width="26" height="27.236" transform="matrix(1,0,0,1,197.146,3.75)"/></clipPath></defs><g clip-path="url(#_clipPath_CRof7ph0hCRAQAlguFze9WmuPV937qrQ)"><text transform="matrix(1,0,0,1,273.989,25.127)" style="font-family:'Open Sans';font-weight:400;font-size:20px;font-style:normal;fill:#000000;stroke:none;">R4</text></g><defs><clipPath id="_clipPath_CRof7ph0hCRAQAlguFze9WmuPV937qrQ"><rect x="0" y="0" width="26" height="27.236" transform="matrix(1,0,0,1,273.989,3.75)"/></clipPath></defs><g clip-path="url(#_clipPath_TfmjRRAsBrAbxvyon4rnV3R9GpEqsh9g)"><text transform="matrix(1,0,0,1,119.923,25.127)" style="font-family:'Open Sans';font-weight:400;font-size:20px;font-style:normal;fill:#000000;stroke:none;">R2</text></g><defs><clipPath id="_clipPath_TfmjRRAsBrAbxvyon4rnV3R9GpEqsh9g"><rect x="0" y="0" width="26" height="27.236" transform="matrix(1,0,0,1,119.923,3.75)"/></clipPath></defs><g clip-path="url(#_clipPath_5AqbC8UvNUpWs6AmVRAnIqQJ4cYo94is)"><text transform="matrix(1,0,0,1,334.989,25.127)" style="font-family:'Open Sans';font-weight:400;font-size:20px;font-style:normal;fill:#000000;stroke:none;">Space</text></g><defs><clipPath id="_clipPath_5AqbC8UvNUpWs6AmVRAnIqQJ4cYo94is"><rect x="0" y="0" width="58" height="27.236" transform="matrix(1,0,0,1,334.989,3.75)"/></clipPath></defs></g></svg>