<?xml version="1.0" encoding="UTF-8" standalone="no"?><!-- Generator: Gravit.io --><svg xmlns="http://www.w3.org/2000/svg" xmlns:xlink="http://www.w3.org/1999/xlink" style="isolation:isolate" viewBox="0 0 420 100" width="420pt" height="100pt"><g opacity="0.5"><line x1="4" y1="33.333" x2="416" y2="33.333" vector-effect="non-scaling-stroke" stroke-width="2" stroke-dasharray="5,10" stroke="rgb(0,0,0)" stroke-linejoin="miter" stroke-linecap="round" stroke-miterlimit="3"/></g><g opacity="0.5"><line x1="4" y1="84.333" x2="416" y2="84.333" vector-effect="non-scaling-stroke" stroke-width="2" stroke-dasharray="5,10" stroke="rgb(0,0,0)" stroke-linejoin="miter" stroke-linecap="round" stroke-miterlimit="3"/></g><g><path d=" M 336.333 50.514 C 335.879 50.596 335.492 50.87 335.268 51.253 L 335.268 51.254 C 330.666 59.21 330.08 71.381 327.279 80.085 L 327.272 83.599 L 401.136 83.599 L 401.136 80.377 C 398.342 71.62 396.613 58.21 392.008 50.254 C 391.784 49.871 391.394 49.595 390.946 49.515 M 390.946 49.514 C 382.762 48.061 372.456 47.333 364.139 47.333 C 355.814 47.333 344.518 49.061 336.333 50.514" fill="none" vector-effect="non-scaling-stroke" stroke-width="1.501" stroke="rgb(35,31,32)" stroke-linejoin="miter" stroke-linecap="butt" stroke-miterlimit="10"/><path d=" M 323.848 79.417 C 321.249 70.349 321.637 57.839 317.092 49.519 M 317.092 49.519 C 316.828 49.034 316.305 48.731 315.74 48.731 C 315.657 48.731 315.572 48.731 315.489 48.75 C 307.431 50.055 295.275 49.701 287.102 49.701 C 278.933 49.701 267.776 50.055 259.718 48.75 C 259.635 48.731 259.55 48.731 259.466 48.731 C 258.893 48.731 258.378 49.034 258.115 49.519 C 253.567 57.84 252.958 70.614 250.359 79.682 C 250.236 80.114 250.172 80.549 250.173 80.99 L 250.171 83.599 L 324.037 83.599 L 324.035 80.732 C 324.034 80.286 323.971 79.849 323.848 79.417" fill="none" vector-effect="non-scaling-stroke" stroke-width="1.501" stroke="rgb(35,31,32)" stroke-linejoin="miter" stroke-linecap="butt" stroke-miterlimit="10"/><mask id="_mask_MXyLZiJqKWix5w1es8nepYOBnlkNsSQ4" x="-200%" y="-200%" width="400%" height="400%"><rect x="-200%" y="-200%" width="400%" height="400%" style="fill:white;"/><path d=" M 246.755 79.68 C 244.154 70.612 243.543 57.838 238.995 49.518 C 238.734 49.033 238.219 48.729 237.646 48.729 C 237.561 48.729 237.479 48.729 237.395 48.749 L 237.396 48.749 C 229.337 50.054 218.18 49.727 210.008 49.727 C 201.833 49.727 191.675 50.054 183.618 48.749 C 183.533 48.729 183.449 48.729 183.366 48.729 C 182.8 48.729 182.276 49.033 182.015 49.518 C 177.468 57.838 175.858 70.613 173.255 79.681 C 173.134 80.113 173.072 80.548 173.074 80.99 L 173.073 83.599 L 246.931 83.599 L 246.937 80.99 C 246.955 80.451 246.853 80.033 246.755 79.68 Z " fill="black" stroke="none"/></mask><path d=" M 246.755 79.68 C 244.154 70.612 243.543 57.838 238.995 49.518 C 238.734 49.033 238.219 48.729 237.646 48.729 C 237.561 48.729 237.479 48.729 237.395 48.749 L 237.396 48.749 C 229.337 50.054 218.18 49.727 210.008 49.727 C 201.833 49.727 191.675 50.054 183.618 48.749 C 183.533 48.729 183.449 48.729 183.366 48.729 C 182.8 48.729 182.276 49.033 182.015 49.518 C 177.468 57.838 175.858 70.613 173.255 79.681 C 173.134 80.113 173.072 80.548 173.074 80.99 L 173.073 83.599 L 246.931 83.599 L 246.937 80.99 C 246.955 80.451 246.853 80.033 246.755 79.68 Z " fill="none"/><path d=" M 246.755 79.68 C 244.154 70.612 243.543 57.838 238.995 49.518 C 238.734 49.033 238.219 48.729 237.646 48.729 C 237.561 48.729 237.479 48.729 237.395 48.749 L 237.396 48.749 C 229.337 50.054 218.18 49.727 210.008 49.727 C 201.833 49.727 191.675 50.054 183.618 48.749 C 183.533 48.729 183.449 48.729 183.366 48.729 C 182.8 48.729 182.276 49.033 182.015 49.518 C 177.468 57.838 175.858 70.613 173.255 79.681 C 173.134 80.113 173.072 80.548 173.074 80.99 L 173.073 83.599 L 246.931 83.599 L 246.937 80.99 C 246.955 80.451 246.853 80.033 246.755 79.68 Z " fill="none" mask="url(#_mask_MXyLZiJqKWix5w1es8nepYOBnlkNsSQ4)" vector-effect="non-scaling-stroke" stroke-width="3.001" stroke="rgb(35,31,32)" stroke-linejoin="miter" stroke-linecap="butt" stroke-miterlimit="10"/><mask id="_mask_bYiLWGwIqgutIKwlijrtAE9eShH5sxyx" x="-200%" y="-200%" width="400%" height="400%"><rect x="-200%" y="-200%" width="400%" height="400%" style="fill:white;"/><path d=" M 169.637 79.681 C 167.038 70.613 166.434 57.839 161.89 49.519 C 161.619 49.034 161.103 48.731 160.529 48.731 C 160.446 48.731 160.362 48.731 160.278 48.75 C 152.222 50.055 141.066 50.701 132.898 50.701 C 124.73 50.701 113.573 50.055 105.518 48.75 C 105.433 48.731 105.351 48.731 105.266 48.731 C 104.699 48.731 104.177 49.034 103.913 49.519 C 99.367 57.84 98.765 70.614 96.159 79.682 C 96.036 80.114 95.973 80.549 95.975 81.003 L 95.978 83.599 L 169.841 83.599 L 169.838 80.997 C 169.835 80.555 169.761 80.114 169.637 79.681 Z " fill="black" stroke="none"/></mask><path d=" M 169.637 79.681 C 167.038 70.613 166.434 57.839 161.89 49.519 C 161.619 49.034 161.103 48.731 160.529 48.731 C 160.446 48.731 160.362 48.731 160.278 48.75 C 152.222 50.055 141.066 50.701 132.898 50.701 C 124.73 50.701 113.573 50.055 105.518 48.75 C 105.433 48.731 105.351 48.731 105.266 48.731 C 104.699 48.731 104.177 49.034 103.913 49.519 C 99.367 57.84 98.765 70.614 96.159 79.682 C 96.036 80.114 95.973 80.549 95.975 81.003 L 95.978 83.599 L 169.841 83.599 L 169.838 80.997 C 169.835 80.555 169.761 80.114 169.637 79.681 Z " fill="none"/><path d=" M 169.637 79.681 C 167.038 70.613 166.434 57.839 161.89 49.519 C 161.619 49.034 161.103 48.731 160.529 48.731 C 160.446 48.731 160.362 48.731 160.278 48.75 C 152.222 50.055 141.066 50.701 132.898 50.701 C 124.73 50.701 113.573 50.055 105.518 48.75 C 105.433 48.731 105.351 48.731 105.266 48.731 C 104.699 48.731 104.177 49.034 103.913 49.519 C 99.367 57.84 98.765 70.614 96.159 79.682 C 96.036 80.114 95.973 80.549 95.975 81.003 L 95.978 83.599 L 169.841 83.599 L 169.838 80.997 C 169.835 80.555 169.761 80.114 169.637 79.681 Z " fill="none" mask="url(#_mask_bYiLWGwIqgutIKwlijrtAE9eShH5sxyx)" vector-effect="non-scaling-stroke" stroke-width="3.001" stroke="rgb(35,31,32)" stroke-linejoin="miter" stroke-linecap="butt" stroke-miterlimit="10"/><mask id="_mask_GAMndwjWckF5uBAUiJ056XqNgw84ai2s" x="-200%" y="-200%" width="400%" height="400%"><rect x="-200%" y="-200%" width="400%" height="400%" style="fill:white;"/><path d=" M 26.922 49.093 C 27.182 48.608 27.583 48.714 28.151 48.714 C 28.235 48.714 28.323 48.714 28.402 48.733 C 36.461 50.038 47.178 50.246 55.349 50.246 C 63.521 50.246 75.09 50.046 83.148 48.742 L 83.181 48.731 C 83.265 48.711 83.348 48.711 83.439 48.711 C 84.005 48.711 84.521 49.015 84.788 49.499 C 89.337 57.819 89.94 70.594 92.543 79.662 C 92.669 80.094 92.748 80.567 92.75 81.004 L 92.746 83.599 L 18.868 83.599 L 18.864 80.957 C 18.88 80.621 18.881 80.264 19.032 79.697 C 21.646 70.612 22.374 57.413 26.922 49.093 L 26.922 49.093 Z " fill="black" stroke="none"/></mask><path d=" M 26.922 49.093 C 27.182 48.608 27.583 48.714 28.151 48.714 C 28.235 48.714 28.323 48.714 28.402 48.733 C 36.461 50.038 47.178 50.246 55.349 50.246 C 63.521 50.246 75.09 50.046 83.148 48.742 L 83.181 48.731 C 83.265 48.711 83.348 48.711 83.439 48.711 C 84.005 48.711 84.521 49.015 84.788 49.499 C 89.337 57.819 89.94 70.594 92.543 79.662 C 92.669 80.094 92.748 80.567 92.75 81.004 L 92.746 83.599 L 18.868 83.599 L 18.864 80.957 C 18.88 80.621 18.881 80.264 19.032 79.697 C 21.646 70.612 22.374 57.413 26.922 49.093 L 26.922 49.093 Z " fill="none"/><path d=" M 26.922 49.093 C 27.182 48.608 27.583 48.714 28.151 48.714 C 28.235 48.714 28.323 48.714 28.402 48.733 C 36.461 50.038 47.178 50.246 55.349 50.246 C 63.521 50.246 75.09 50.046 83.148 48.742 L 83.181 48.731 C 83.265 48.711 83.348 48.711 83.439 48.711 C 84.005 48.711 84.521 49.015 84.788 49.499 C 89.337 57.819 89.94 70.594 92.543 79.662 C 92.669 80.094 92.748 80.567 92.75 81.004 L 92.746 83.599 L 18.868 83.599 L 18.864 80.957 C 18.88 80.621 18.881 80.264 19.032 79.697 C 21.646 70.612 22.374 57.413 26.922 49.093 L 26.922 49.093 Z " fill="none" mask="url(#_mask_GAMndwjWckF5uBAUiJ056XqNgw84ai2s)" vector-effect="non-scaling-stroke" stroke-width="3" stroke="rgb(35,31,32)" stroke-linejoin="miter" stroke-linecap="butt" stroke-miterlimit="10"/></g><g><g clip-path="url(#_clipPath_21eRz7Nc2EjJWA1MdTDdnd2xwpeaoz7r)"><text transform="matrix(1,0,0,1,42.807,25.127)" style="font-family:'Open Sans';font-weight:400;font-size:20px;font-style:normal;fill:#000000;stroke:none;">R1</text></g><defs><clipPath id="_clipPath_21eRz7Nc2EjJWA1MdTDdnd2xwpeaoz7r"><rect x="0" y="0" width="26" height="27.236" transform="matrix(1,0,0,1,42.807,3.75)"/></clipPath></defs><g clip-path="url(#_clipPath_UMaTM2aA7HoPL4UALxvLLujyEfXzzbs9)"><text transform="matrix(1,0,0,1,197.006,25.127)" style="font-family:'Open Sans';font-weight:400;font-size:20px;font-style:normal;fill:#000000;stroke:none;">R3</text></g><defs><clipPath id="_clipPath_UMaTM2aA7HoPL4UALxvLLujyEfXzzbs9"><rect x="0" y="0" width="26" height="27.236" transform="matrix(1,0,0,1,197.006,3.75)"/></clipPath></defs><g clip-path="url(#_clipPath_ON6Vak1B0ZzxsAeIf816mttY6KPMDdT8)"><text transform="matrix(1,0,0,1,274.104,25.127)" style="font-family:'Open Sans';font-weight:400;font-size:20px;font-style:normal;fill:#000000;stroke:none;">R4</text></g><defs><clipPath id="_clipPath_ON6Vak1B0ZzxsAeIf816mttY6KPMDdT8"><rect x="0" y="0" width="26" height="27.236" transform="matrix(1,0,0,1,274.104,3.75)"/></clipPath></defs><g clip-path="url(#_clipPath_HB5tKUvBKWBXVPIcDDfTGBmOuVVHc5rn)"><text transform="matrix(1,0,0,1,119.908,25.127)" style="font-family:'Open Sans';font-weight:400;font-size:20px;font-style:normal;fill:#000000;stroke:none;">R2</text></g><defs><clipPath id="_clipPath_HB5tKUvBKWBXVPIcDDfTGBmOuVVHc5rn"><rect x="0" y="0" width="26" height="27.236" transform="matrix(1,0,0,1,119.908,3.75)"/></clipPath></defs><g clip-path="url(#_clipPath_KDWyg8DgZS5r3Q4l5wwrfuyxuLQJT1mf)"><text transform="matrix(1,0,0,1,335.204,25.127)" style="font-family:'Open Sans';font-weight:400;font-size:20px;font-style:normal;fill:#000000;stroke:none;">Space</text></g><defs><clipPath id="_clipPath_KDWyg8DgZS5r3Q4l5wwrfuyxuLQJT1mf"><rect x="0" y="0" width="58" height="27.236" transform="matrix(1,0,0,1,335.204,3.75)"/></clipPath></defs></g></svg>